<svg xmlns="http://www.w3.org/2000/svg" width="720" height="320" viewBox="0 0 720 320">
  <rect width="100%" height="100%" fill="#F7F1EA"/>
  <text x="360.0" y="28" text-anchor="middle" font-size="15" font-weight="700" fill="#1A1410">chrF on expanded gold by system</text>
  <rect x="50" y="8" width="12" height="12" fill="#C8102E"/><text x="68" y="18" font-size="11" fill="#1A1410">phrasebook</text><rect x="190" y="8" width="12" height="12" fill="#0D652D"/><text x="208" y="18" font-size="11" fill="#1A1410">google_gtx</text>
  <line x1="50" y1="270" x2="700" y2="270" stroke="#E8DDD2"/>
  <rect x="74.0" y="234.3" width="56.0" height="35.7" fill="#C8102E" rx="3"/><rect x="130.0" y="111.8" width="56.0" height="158.2" fill="#0D652D" rx="3"/><text x="130.0" y="288" text-anchor="middle" font-size="11" fill="#6B5E55">formal</text><rect x="234.0" y="236.4" width="56.0" height="33.6" fill="#C8102E" rx="3"/><rect x="290.0" y="129.0" width="56.0" height="141.0" fill="#0D652D" rx="3"/><text x="290.0" y="288" text-anchor="middle" font-size="11" fill="#6B5E55">informal</text><rect x="394.0" y="235.8" width="56.0" height="34.2" fill="#C8102E" rx="3"/><rect x="450.0" y="99.1" width="56.0" height="170.9" fill="#0D652D" rx="3"/><text x="450.0" y="288" text-anchor="middle" font-size="11" fill="#6B5E55">deva</text><rect x="554.0" y="270.0" width="56.0" height="0.0" fill="#C8102E" rx="3"/><rect x="610.0" y="253.9" width="56.0" height="16.1" fill="#0D652D" rx="3"/><text x="610.0" y="288" text-anchor="middle" font-size="11" fill="#6B5E55">roman</text>
</svg>
